<svg width="512" height="116" viewBox="0 0 512 116" fill="none" xmlns="http://www.w3.org/2000/svg">
<path d="M159.89 17.93C158.952 14.4642 157.122 11.3046 154.583 8.76579C152.045 6.22702 148.885 4.39769 145.419 3.46C132.73 0 81.6659 0 81.6659 0C81.6659 0 30.5999 0.105 17.9129 3.565C14.4472 4.50285 11.2876 6.33224 8.74889 8.871C6.21013 11.4098 4.38074 14.5693 3.44289 18.035C-0.39511 40.58 -1.88411 74.931 3.54789 96.573C4.48574 100.039 6.31513 103.198 8.85389 105.737C11.3926 108.276 14.5522 110.105 18.0179 111.043C30.7059 114.503 81.7709 114.503 81.7709 114.503C81.7709 114.503 132.836 114.503 145.524 111.043C148.99 110.105 152.149 108.276 154.688 105.737C157.227 103.198 159.056 100.039 159.994 96.573C164.041 73.997 165.289 39.667 159.889 17.931" fill="#FF0000"/>
<path d="M65.413 81.788L107.775 57.252L65.413 32.715V81.788Z" fill="white"/>
<path d="M491.237 33.24C496.794 33.24 500.988 34.288 503.924 36.28C506.86 38.273 508.958 41.418 510.216 45.718C511.474 50.017 511.998 55.888 511.998 63.438V75.707H485.05V79.481L485.47 89.862C485.784 92.169 486.309 93.847 487.147 94.895C487.987 95.944 489.349 96.468 491.132 96.468C493.544 96.468 495.222 95.525 496.06 93.638C497.004 91.75 497.423 88.604 497.528 84.305L511.474 85.144C511.579 85.773 511.579 86.612 511.579 87.66C511.579 94.266 509.796 99.195 506.126 102.445C502.456 105.695 497.423 107.373 490.817 107.373C482.848 107.373 477.291 104.857 474.145 99.929C471 95 469.322 87.24 469.322 76.86V64.172C469.678 46.347 472.813 33.292 491.237 33.24ZM297.357 34.603V87.136C297.357 90.282 297.671 92.589 298.405 93.952C299.894 96.867 303.753 96.122 305.85 94.686C307.061 93.8677 308.037 92.7474 308.681 91.436V34.602H324.724V106.219H312.141L310.778 97.411H310.464C307.004 104.017 301.865 107.372 295.05 107.372C284.56 107.346 281.993 99.788 281.382 92.112L281.342 91.571C281.267 90.4084 281.222 89.244 281.209 88.079V34.603H297.357ZM380.089 34.603V87.136C380.089 90.282 380.403 92.589 381.137 93.952C382.627 96.867 386.485 96.122 388.582 94.686C389.793 93.8677 390.768 92.7474 391.413 91.436V34.602H407.456V106.219H394.873L393.51 97.411H393.196C389.736 104.017 384.597 107.372 377.782 107.372C367.292 107.346 364.725 99.788 364.114 92.112L364.074 91.571C363.999 90.4084 363.954 89.244 363.941 88.079V34.603H380.089ZM250.8 33.24C256.043 33.24 260.342 34.288 263.488 36.49C266.633 38.692 269.045 42.048 270.513 46.661C271.981 51.275 272.715 57.461 272.715 65.116V75.496C272.715 83.151 271.981 89.233 270.513 93.846C269.045 98.461 266.738 101.816 263.488 104.018C260.238 106.115 255.833 107.268 250.381 107.268C244.718 107.373 240.314 106.22 237.064 104.123C233.814 101.921 231.506 98.565 230.144 93.952C228.78 89.338 228.151 83.256 228.151 75.602V65.22C228.151 57.565 228.885 51.274 230.458 46.66C232.031 41.942 234.442 38.586 237.798 36.49C241.153 34.392 245.452 33.239 250.8 33.239M432.622 4.509V42.257H432.727C434.195 39.531 436.082 37.329 438.704 35.651C441.152 34.0047 444.037 33.1285 446.987 33.135C450.867 33.135 453.803 34.183 456.005 36.175C458.207 38.273 459.78 41.523 460.723 46.032C461.638 50.4 462.158 56.441 462.19 64.059L462.191 64.802V76.126C462.191 86.716 460.828 94.581 458.311 99.614C455.691 104.647 451.706 107.164 446.253 107.164C443.213 107.164 440.486 106.43 437.97 105.067C435.745 103.77 433.899 101.911 432.62 99.675L432.412 99.299H432.098L430.42 106.115H417.103V4.51L432.622 4.509ZM368.449 8.179V21.18H352.511V106.219H336.783V21.181H320.74V8.18L368.449 8.179ZM195.54 8.179L195.55 8.219C195.703 8.9 197.823 18.325 200.155 29.306L200.339 30.176L200.617 31.491L200.803 32.374L200.896 32.817L201.082 33.705L201.175 34.15L201.36 35.041L201.63 36.344C203.205 43.948 204.708 51.574 205.607 57.042H206.027C206.888 52.137 208.139 45.86 209.473 39.451L209.823 37.777C209.999 36.939 210.175 36.101 210.353 35.265L210.627 33.968C212.438 25.4748 214.304 16.9933 216.224 8.524L216.254 8.389L216.302 8.179H232.345L213.785 74.344V106.115H197.952V74.448H197.847L179.497 8.178L195.54 8.179ZM250.485 44.354C248.283 44.354 246.815 45.508 245.872 47.92C244.928 50.331 244.509 54.001 244.509 59.14V81.474C244.509 86.717 244.928 90.596 245.767 92.904C246.606 95.21 248.179 96.364 250.485 96.364C252.687 96.364 254.26 95.21 255.204 92.904C256.148 90.596 256.567 86.717 256.567 81.474V59.139C256.567 54.001 256.147 50.226 255.204 47.919C254.26 45.508 252.687 44.354 250.485 44.354ZM435.453 46.452C434.175 47.632 433.266 49.087 432.725 50.906L432.622 51.275V91.959C433.922 94.161 435.768 95.629 439.018 95.734C440.696 95.734 442.058 95.105 443.108 93.847C444.156 92.589 444.89 90.491 445.309 87.555C445.712 84.737 445.922 80.855 445.938 75.911V65.955C445.938 60.293 445.728 55.994 445.414 52.953C444.994 49.912 444.471 47.71 443.527 46.452C441.702 43.83 437.76 43.862 435.453 46.452ZM490.923 44.04C489.14 44.145 487.881 44.669 487.147 45.613C486.309 46.661 485.784 48.234 485.47 50.541C485.161 52.801 485.055 60.701 485.05 61.017V66.165H496.794V61.625V61.712C496.787 63.299 496.754 60.791 496.682 57.712L496.672 57.298C496.606 54.592 496.51 51.575 496.375 50.541C496.06 48.129 495.535 46.451 494.697 45.508C493.858 44.564 492.6 44.04 490.922 44.04" fill="#282828"/>
</svg>
